<svg xmlns="http://www.w3.org/2000/svg" viewBox="0 0 500 500"><g id="freepik--Floor--inject-25"><ellipse id="freepik--floor--inject-25" cx="250" cy="357.48" rx="234.49" ry="135.38" style="fill:#fafafa"></ellipse></g><g id="freepik--Shadows--inject-25"><path id="freepik--Shadow--inject-25" d="M391.57,346.62,433,322.73a1.07,1.07,0,0,0,0-2L330.58,261.35a3.84,3.84,0,0,0-3.49,0l-41.45,23.89a1.07,1.07,0,0,0,0,2l102.45,59.36A3.84,3.84,0,0,0,391.57,346.62Z" style="fill:#e6e6e6"></path><path id="freepik--shadow--inject-25" d="M183.51,248.33c-8.31,4.8-8.31,12.59,0,17.39s21.8,4.8,30.11,0,8.32-12.59,0-17.39S191.83,243.53,183.51,248.33Z" style="fill:#e6e6e6"></path><ellipse id="freepik--shadow--inject-25" cx="246.84" cy="415.32" rx="109.62" ry="63.29" style="fill:#e6e6e6"></ellipse><path id="freepik--shadow--inject-25" d="M146.09,425.65,70,381.71c-4.78-2.76-4.78-7.24,0-10l47.68-27.52c4.78-2.76,12.61-2.91,17.49-.32L215,386.11c4.88,2.58,5,6.91.17,9.67l-51.73,29.87C158.63,428.41,150.87,428.41,146.09,425.65Z" style="fill:#e6e6e6"></path><path id="freepik--shadow--inject-25" d="M428.71,343.72c-10.33,6-10.33,15.81,0,21.84s27.07,6,37.39,0,10.33-15.81,0-21.84S439,337.7,428.71,343.72Z" style="fill:#e6e6e6"></path></g><g id="freepik--Pictures--inject-25"><g id="freepik--Picture--inject-25"><g id="freepik--Frame--inject-25"><polygon points="318.23 80.06 316.58 81.04 282.82 61.55 284.47 60.57 318.23 80.06" style="fill:#fafafa"></polygon><polygon points="284.47 60.57 316.58 79.11 316.58 45.48 284.47 26.95 284.47 60.57" style="fill:#fff"></polygon><path d="M279.72,63.34l40,23.08V43.69l-40-23.08ZM282.82,26l33.76,19.49V81L282.82,61.55Z" style="fill:#f0f0f0"></path><polygon points="282.82 61.55 284.47 60.57 284.47 26.95 282.82 25.99 282.82 61.55" style="fill:#e0e0e0"></polygon><polygon points="279.72 20.61 281.39 19.65 321.36 42.73 319.69 43.69 279.72 20.61" style="fill:#fafafa"></polygon><polygon points="321.36 42.73 319.69 43.69 319.69 86.42 321.36 85.46 321.36 42.73" style="fill:#e0e0e0"></polygon></g><g id="freepik--Land--inject-25"><polygon points="285.72 59.56 315.33 76.66 315.33 68.11 307.93 51.02 303.31 55.29 304.97 62.46 294.75 40.59 285.72 51.02 285.72 59.56" style="fill:#f0f0f0"></polygon><path d="M303.59,42.76a4.85,4.85,0,0,1,2.19,3.8c0,1.39-1,2-2.19,1.26A4.83,4.83,0,0,1,301.4,44C301.4,42.63,302.38,42.07,303.59,42.76Z" style="fill:#f0f0f0"></path></g></g><g id="freepik--picture--inject-25"><g id="freepik--frame--inject-25"><polygon points="371.49 119.66 369.85 120.64 336.09 101.14 337.73 100.16 371.49 119.66" style="fill:#fafafa"></polygon><polygon points="337.73 100.16 369.85 118.7 369.85 85.07 337.73 66.55 337.73 100.16" style="fill:#fff"></polygon><path d="M333,102.94,373,126V83.28L333,60.2Zm3.11-37.36,33.76,19.49v35.57l-33.76-19.49Z" style="fill:#f0f0f0"></path><polygon points="336.09 101.14 337.73 100.16 337.73 66.55 336.09 65.58 336.09 101.14" style="fill:#e0e0e0"></polygon><polygon points="332.98 60.2 334.65 59.25 374.62 82.32 372.95 83.28 332.98 60.2" style="fill:#fafafa"></polygon><polygon points="374.62 82.32 372.95 83.28 372.95 126.01 374.62 125.06 374.62 82.32" style="fill:#e0e0e0"></polygon></g><g id="freepik--land--inject-25"><polygon points="338.99 99.16 368.59 116.25 368.59 107.71 361.19 90.61 356.58 94.89 358.24 102.05 348.01 80.19 338.99 90.61 338.99 99.16" style="fill:#f0f0f0"></polygon><path d="M356.86,82.36a4.83,4.83,0,0,1,2.19,3.79c0,1.4-1,2-2.19,1.27a4.85,4.85,0,0,1-2.19-3.8C354.67,82.23,355.65,81.66,356.86,82.36Z" style="fill:#f0f0f0"></path></g></g></g><g id="freepik--Window--inject-25"><g id="freepik--window--inject-25"><g id="freepik--window--inject-25"><polygon points="137.21 162.31 22.06 228.78 22.06 92.67 137.21 26.21 137.21 162.31" style="fill:#fff"></polygon><polygon points="19.8 230.09 22.06 231.44 139.46 163.65 137.21 162.31 19.8 230.09" style="fill:#fafafa"></polygon><path d="M143.73,17.5,17.8,90.21v148.6l125.93-72.7Zm-4.27,146.15L22.06,231.44V92.66L139.47,24.88Z" style="fill:#f0f0f0"></path><polygon points="139.46 163.65 137.21 162.31 137.21 26.21 139.47 24.88 139.46 163.65" style="fill:#e0e0e0"></polygon><polygon points="143.73 17.5 141.43 16.19 15.51 88.89 17.8 90.21 143.73 17.5" style="fill:#fafafa"></polygon><polygon points="15.51 88.89 17.8 90.21 17.8 238.81 15.51 237.5 15.51 88.89" style="fill:#e0e0e0"></polygon><polygon points="23.94 157.85 23.94 160.5 139.47 93.72 137.21 92.37 23.94 157.85" style="fill:#fafafa"></polygon><polygon points="77.13 60.88 79.42 59.56 79.42 198.34 77.13 197.03 77.13 60.88" style="fill:#e0e0e0"></polygon><polygon points="83.69 57.11 79.42 59.56 79.42 198.34 83.68 195.87 83.69 57.11" style="fill:#f0f0f0"></polygon><polygon points="139.47 93.72 139.47 98.63 22.02 166.69 22.02 161.78 139.47 93.72" style="fill:#f0f0f0"></polygon><polygon points="79.42 128.51 77.13 127.1 22.06 158.93 22.06 161.78 79.42 128.51" style="fill:#fafafa"></polygon></g><g id="freepik--Curtains--inject-25"><path d="M133.1,11.85V30.62S95.72,140.84,39.67,177.75v74.3a3,3,0,0,1-4.06,2.35s-1.54,3.8-4.06,2.34c0,0-1.7,3.71-4.06,2.35,0,0-1.74,3.68-4.06,2.34,0,0-1.33,3.93-4.07,2.35V77.52Z" style="fill:#f0f0f0"></path><path d="M35.61,254.4c.21-6.29.3-12.58.38-18.87s.08-12.59.12-18.88,0-12.58-.11-18.87l-.14-9.43c-.09-3.15-.14-6.3-.25-9.44-.11,3.14-.16,6.29-.24,9.44l-.14,9.43c-.08,6.29-.08,12.58-.12,18.87s0,12.58.12,18.88S35.41,248.11,35.61,254.4Z" style="fill:#e0e0e0"></path><path d="M31.55,256.74c.21-6.29.3-12.58.38-18.87s.08-12.58.12-18.87,0-12.58-.12-18.87l-.14-9.44c-.08-3.14-.13-6.29-.24-9.44-.11,3.15-.16,6.3-.25,9.44l-.14,9.44c-.07,6.29-.07,12.58-.11,18.87s0,12.58.12,18.87S31.34,250.45,31.55,256.74Z" style="fill:#e0e0e0"></path><path d="M27.49,259.09c.2-6.29.3-12.58.38-18.87s.07-12.59.12-18.88,0-12.58-.12-18.87L27.73,193c-.08-3.15-.13-6.29-.24-9.44-.12,3.15-.16,6.29-.25,9.44l-.14,9.43C27,208.76,27,215.05,27,221.34s0,12.59.11,18.88S27.28,252.8,27.49,259.09Z" style="fill:#e0e0e0"></path><path d="M23.43,261.43c.2-6.29.3-12.58.38-18.87s.07-12.58.11-18.87,0-12.58-.11-18.87l-.14-9.44c-.08-3.14-.13-6.29-.24-9.44-.12,3.15-.17,6.3-.25,9.44L23,204.82c-.08,6.29-.07,12.58-.11,18.87s0,12.58.11,18.87S23.22,255.14,23.43,261.43Z" style="fill:#e0e0e0"></path><path d="M133.1,30.62C123.52,35.91,114,41.3,104.48,46.7L76,63,47.61,79.53,33.46,87.86l-14.1,8.42,14.34-8L48,80.2,76.48,63.88l28.38-16.52C114.3,41.82,123.73,36.27,133.1,30.62Z" style="fill:#e0e0e0"></path><path d="M39.67,169a51.11,51.11,0,0,0,4.71-5.46c1.45-1.92,2.88-3.85,4.26-5.82q4.13-5.92,7.89-12.08,7.56-12.28,14-25.23c2.12-4.32,4.17-8.67,6.1-13.09s3.7-8.89,5.3-13.43c3.21-9.07,5.85-18.46,6.48-28.08a94.92,94.92,0,0,1-3.22,14c-1.36,4.59-3,9.08-4.72,13.54C77,102.23,73,110.94,68.75,119.5s-8.81,17-13.56,25.32c-2.39,4.15-4.82,8.28-7.36,12.34A107.88,107.88,0,0,1,39.67,169Z" style="fill:#e0e0e0"></path><path d="M27.49,180.71a175.22,175.22,0,0,0,12.62-21.66,214.55,214.55,0,0,0,9.81-23.12c.67-2,1.42-3.94,2-6l1.85-6c.6-2,1.06-4,1.59-6.07l.78-3.05c.25-1,.42-2,.64-3.08L58,105.61l.88-6.22.41-3.11.24-3.13c.16-2.08.3-4.17.42-6.25C59.65,89,59.32,91,59,93.09l-.46,3.09-.63,3.06-1.2,6.12-1.46,6.06A238.08,238.08,0,0,1,48,135.26c-2.78,7.83-5.91,15.54-9.33,23.12L36.07,164c-.91,1.87-1.8,3.75-2.74,5.61C31.5,173.39,29.52,177.06,27.49,180.71Z" style="fill:#e0e0e0"></path><path d="M23.43,183.06a171.44,171.44,0,0,0,7.3-22.12,211.08,211.08,0,0,0,4.63-22.85c.25-1.93.54-3.86.76-5.79l.56-5.81c.22-1.94.24-3.89.36-5.83s.23-3.88.19-5.83a136.77,136.77,0,0,0-1.62-23.24c.06,1.94.13,3.88.23,5.81,0,1,.1,1.93.12,2.9l0,2.9c0,1.93,0,3.86,0,5.79l-.24,5.79c-.44,7.7-1.11,15.39-2.29,23s-2.5,15.23-4.16,22.78l-1.3,5.65c-.47,1.87-.91,3.76-1.4,5.63C25.6,175.62,24.52,179.33,23.43,183.06Z" style="fill:#e0e0e0"></path><path d="M129,14.2a79.67,79.67,0,0,0-.5,9.38A79.67,79.67,0,0,0,129,33a75.59,75.59,0,0,0,.5-9.38A79.67,79.67,0,0,0,129,14.2Z" style="fill:#e0e0e0"></path><path d="M125,16.54a75.75,75.75,0,0,0-.5,9.39,75.7,75.7,0,0,0,.5,9.38,79.79,79.79,0,0,0,.5-9.38A79.84,79.84,0,0,0,125,16.54Z" style="fill:#e0e0e0"></path><path d="M120.92,18.89a75.59,75.59,0,0,0-.5,9.38,75.59,75.59,0,0,0,.5,9.38,79.67,79.67,0,0,0,.5-9.38A79.67,79.67,0,0,0,120.92,18.89Z" style="fill:#e0e0e0"></path><path d="M116.85,21.24a79.56,79.56,0,0,0-.5,9.38,79.79,79.79,0,0,0,.5,9.38,75.7,75.7,0,0,0,.5-9.38A75.49,75.49,0,0,0,116.85,21.24Z" style="fill:#e0e0e0"></path><path d="M112.79,23.58a79.67,79.67,0,0,0-.5,9.38,79.56,79.56,0,0,0,.5,9.38,75.49,75.49,0,0,0,.5-9.38A79.67,79.67,0,0,0,112.79,23.58Z" style="fill:#e0e0e0"></path><path d="M108.73,25.93a77.47,77.47,0,0,0-.5,9.38,75.7,75.7,0,0,0,.5,9.38,79.79,79.79,0,0,0,.5-9.38A79.56,79.56,0,0,0,108.73,25.93Z" style="fill:#e0e0e0"></path><path d="M104.67,28.27a75.7,75.7,0,0,0-.5,9.38,75.49,75.49,0,0,0,.5,9.38,79.56,79.56,0,0,0,.5-9.38A79.79,79.79,0,0,0,104.67,28.27Z" style="fill:#e0e0e0"></path><path d="M100.6,30.62a79.56,79.56,0,0,0-.5,9.38,79.79,79.79,0,0,0,.5,9.38,75.7,75.7,0,0,0,.5-9.38A75.49,75.49,0,0,0,100.6,30.62Z" style="fill:#e0e0e0"></path><path d="M96.54,33a79.79,79.79,0,0,0-.5,9.38,79.56,79.56,0,0,0,.5,9.38,75.49,75.49,0,0,0,.5-9.38A79.79,79.79,0,0,0,96.54,33Z" style="fill:#e0e0e0"></path><path d="M92.48,35.31a77.47,77.47,0,0,0-.5,9.38,75.59,75.59,0,0,0,.5,9.38,79.67,79.67,0,0,0,.5-9.38A79.56,79.56,0,0,0,92.48,35.31Z" style="fill:#e0e0e0"></path><path d="M88.42,37.65a75.7,75.7,0,0,0-.5,9.38,75.75,75.75,0,0,0,.5,9.39,79.84,79.84,0,0,0,.5-9.39A79.79,79.79,0,0,0,88.42,37.65Z" style="fill:#e0e0e0"></path><path d="M84.35,40a79.67,79.67,0,0,0-.5,9.38,79.67,79.67,0,0,0,.5,9.38,75.59,75.59,0,0,0,.5-9.38A75.59,75.59,0,0,0,84.35,40Z" style="fill:#e0e0e0"></path><path d="M80.29,42.34a79.84,79.84,0,0,0-.5,9.39,79.79,79.79,0,0,0,.5,9.38,75.7,75.7,0,0,0,.5-9.38A79.84,79.84,0,0,0,80.29,42.34Z" style="fill:#e0e0e0"></path><path d="M76.23,44.69a77.58,77.58,0,0,0-.5,9.38,75.59,75.59,0,0,0,.5,9.38,79.67,79.67,0,0,0,.5-9.38A79.67,79.67,0,0,0,76.23,44.69Z" style="fill:#e0e0e0"></path><path d="M72.17,47a75.75,75.75,0,0,0-.5,9.39,75.7,75.7,0,0,0,.5,9.38,79.79,79.79,0,0,0,.5-9.38A79.84,79.84,0,0,0,72.17,47Z" style="fill:#e0e0e0"></path><path d="M68.1,49.38a79.67,79.67,0,0,0-.5,9.38,79.56,79.56,0,0,0,.5,9.38,75.49,75.49,0,0,0,.5-9.38A75.59,75.59,0,0,0,68.1,49.38Z" style="fill:#e0e0e0"></path><path d="M64,51.73a79.56,79.56,0,0,0-.5,9.38,79.79,79.79,0,0,0,.5,9.38,75.7,75.7,0,0,0,.5-9.38A79.56,79.56,0,0,0,64,51.73Z" style="fill:#e0e0e0"></path><path d="M60,54.07a77.69,77.69,0,0,0-.5,9.38,75.49,75.49,0,0,0,.5,9.38,79.56,79.56,0,0,0,.5-9.38A79.79,79.79,0,0,0,60,54.07Z" style="fill:#e0e0e0"></path><path d="M55.92,56.41a79.79,79.79,0,0,0-.5,9.38,79.84,79.84,0,0,0,.5,9.39,75.75,75.75,0,0,0,.5-9.39A75.7,75.7,0,0,0,55.92,56.41Z" style="fill:#e0e0e0"></path><path d="M51.87,58.76a75.49,75.49,0,0,0-.5,9.38,75.7,75.7,0,0,0,.5,9.38,79.79,79.79,0,0,0,.5-9.38A79.56,79.56,0,0,0,51.87,58.76Z" style="fill:#e0e0e0"></path><path d="M47.81,61.1a79.67,79.67,0,0,0-.5,9.38,79.67,79.67,0,0,0,.5,9.38,75.59,75.59,0,0,0,.5-9.38A75.59,75.59,0,0,0,47.81,61.1Z" style="fill:#e0e0e0"></path><path d="M43.76,63.44a75.59,75.59,0,0,0-.5,9.38,75.49,75.49,0,0,0,.5,9.38,79.56,79.56,0,0,0,.5-9.38A79.67,79.67,0,0,0,43.76,63.44Z" style="fill:#e0e0e0"></path><path d="M39.7,65.78a79.79,79.79,0,0,0-.5,9.38,79.84,79.84,0,0,0,.5,9.39,75.75,75.75,0,0,0,.5-9.39A79.79,79.79,0,0,0,39.7,65.78Z" style="fill:#e0e0e0"></path><path d="M35.65,68.13a75.49,75.49,0,0,0-.5,9.38,75.7,75.7,0,0,0,.5,9.38,79.79,79.79,0,0,0,.5-9.38A79.56,79.56,0,0,0,35.65,68.13Z" style="fill:#e0e0e0"></path><path d="M31.59,70.47a79.67,79.67,0,0,0-.5,9.38,75.59,75.59,0,0,0,.5,9.38,75.59,75.59,0,0,0,.5-9.38A79.67,79.67,0,0,0,31.59,70.47Z" style="fill:#e0e0e0"></path><path d="M27.53,72.81a79.67,79.67,0,0,0-.5,9.38,79.56,79.56,0,0,0,.5,9.38,75.49,75.49,0,0,0,.5-9.38A75.59,75.59,0,0,0,27.53,72.81Z" style="fill:#e0e0e0"></path><path d="M23.48,75.15a79.79,79.79,0,0,0-.5,9.38,75.49,75.49,0,0,0,.5,9.38,79.56,79.56,0,0,0,.5-9.38A79.79,79.79,0,0,0,23.48,75.15Z" style="fill:#e0e0e0"></path></g></g></g><g id="freepik--Furniture--inject-25"><g id="freepik--Drawer--inject-25"><polygon points="382.8 323.52 386.36 341.18 389.82 343.18 393.25 341.19 396.84 323.52 389.82 319.46 382.8 323.52" style="fill:#e0e0e0"></polygon><polygon points="382.8 323.52 386.36 341.18 389.82 343.18 393.25 341.19 396.84 323.52 389.82 319.46 382.8 323.52" style="opacity:0.05"></polygon><polygon points="389.82 343.18 389.82 327.57 382.8 323.52 386.36 341.18 389.82 343.18" style="fill:#ebebeb"></polygon><polygon points="382.8 323.52 385.1 334.92 389.82 337.65 394.52 334.93 396.84 323.52 389.82 319.46 382.8 323.52" style="opacity:0.05"></polygon><polygon points="413.67 305.69 417.23 323.35 420.69 325.35 424.12 323.37 427.71 305.69 420.69 301.64 413.67 305.69" style="fill:#e0e0e0"></polygon><polygon points="413.67 305.69 417.23 323.35 420.69 325.35 424.12 323.37 427.71 305.69 420.69 301.64 413.67 305.69" style="opacity:0.05"></polygon><polygon points="420.69 325.35 420.69 309.75 413.67 305.69 417.23 323.35 420.69 325.35" style="fill:#ebebeb"></polygon><polygon points="413.67 305.69 415.97 317.1 420.69 319.82 425.4 317.11 427.71 305.69 420.69 301.64 413.67 305.69" style="opacity:0.05"></polygon><polygon points="291.48 270.79 295.04 288.45 298.5 290.45 301.93 288.47 305.52 270.79 298.5 266.74 291.48 270.79" style="opacity:0.05"></polygon><polygon points="298.5 290.45 298.5 274.85 291.48 270.79 295.04 288.45 298.5 290.45" style="fill:#ebebeb"></polygon><polygon points="291.48 270.79 293.78 282.2 298.5 284.92 303.21 282.21 305.52 270.79 298.5 266.74 291.48 270.79" style="opacity:0.05"></polygon><g id="freepik--Cabinet--inject-25"><g id="freepik--cabinet--inject-25"><polygon points="389.82 334.8 428.08 312.71 428.08 229.91 389.82 251.99 389.82 334.8" style="fill:#e0e0e0"></polygon><polygon points="389.82 251.99 289.49 194.07 289.49 276.87 389.82 334.8 389.82 251.99" style="fill:#ebebeb"></polygon><polygon points="289.49 194.07 389.82 251.99 428.08 229.91 327.75 171.98 289.49 194.07" style="fill:#f5f5f5"></polygon><polygon points="384.36 293.01 294.96 241.4 294.96 271.79 293.95 272.37 383.35 323.98 384.36 323.4 384.36 293.01" style="fill:#e0e0e0"></polygon><polygon points="383.35 293.59 293.95 241.98 293.95 272.37 383.35 323.98 383.35 293.59" style="fill:#f5f5f5"></polygon><path d="M340.37,274.52l-7.43-4.29c-1-.56-1.75-.3-1.75.57a3.5,3.5,0,0,0,1.75,2.59l7.43,4.29c1,.56,1.75.3,1.75-.57A3.5,3.5,0,0,0,340.37,274.52Z" style="fill:#e0e0e0"></path><polygon points="384.36 256.32 294.96 204.7 294.96 235.09 293.96 235.68 383.36 287.29 384.36 286.71 384.36 256.32" style="fill:#e0e0e0"></polygon><polygon points="383.35 256.9 293.95 205.29 293.96 235.68 383.36 287.29 383.35 256.9" style="fill:#f5f5f5"></polygon><path d="M340.37,237.83l-7.43-4.29c-1-.56-1.75-.31-1.75.57a3.49,3.49,0,0,0,1.75,2.58l7.44,4.29c1,.56,1.74.31,1.74-.56A3.5,3.5,0,0,0,340.37,237.83Z" style="fill:#e0e0e0"></path></g></g><g id="freepik--Pot--inject-25"><path d="M314.94,182.65c-4.64,2.67-4.64,7,0,9.69s12.16,2.68,16.79,0,4.64-7,0-9.69S319.58,180,314.94,182.65Z" style="fill:#e0e0e0"></path><path d="M330.72,188.09c4-4.12,6.42-14.41,2.48-17.68H313.15c-3.94,3.27-1.57,13.55,2.47,17.68a1.14,1.14,0,0,0,.11.11l.14.14a3.73,3.73,0,0,0,.36.32l.1.08.31.23a5.69,5.69,0,0,0,.52.33,13.28,13.28,0,0,0,12,0h0a5.69,5.69,0,0,0,.52-.33c.11-.07.2-.15.29-.22l.12-.09.35-.32.16-.15Z" style="fill:#ebebeb"></path><path d="M314.89,169.09c-4.57,2.64-4.57,6.93,0,9.57s12,2.64,16.56,0,4.58-6.93,0-9.57S319.47,166.45,314.89,169.09Z" style="fill:#fafafa"></path><path d="M318.13,171c-2.78,1.6-2.78,4.21,0,5.81a11.12,11.12,0,0,0,10.08,0c2.78-1.6,2.78-4.21,0-5.81A11.12,11.12,0,0,0,318.13,171Z" style="fill:#f5f5f5"></path><path d="M328.21,173.73a11.12,11.12,0,0,0-10.08,0,4.52,4.52,0,0,0-1.66,1.53,4.59,4.59,0,0,0,1.66,1.52,11.12,11.12,0,0,0,10.08,0,4.71,4.71,0,0,0,1.67-1.52A4.64,4.64,0,0,0,328.21,173.73Z" style="fill:#ebebeb"></path><path d="M318.75,175.26a23,23,0,0,1-3.65-4.85c-1.68-3-2-7-1.12-7.45s4.41,3.48,4.41,3.48a21.57,21.57,0,0,1-.37-5.08c.15-2.65.79-5.06,1.55-5.54s2.46,2.85,3.19,5.28,1.16,4.41,1.16,4.41a37.52,37.52,0,0,1,1.31-5.57c.88-2.52,1.68-3.09,2.3-2.84s1,1.42,1.22,4.77a34.48,34.48,0,0,1-.15,4.8s1.25-1.37,2.63-2.71,2.18-1.66,2.61-1.38.56,2.55-1.8,6.82a23.91,23.91,0,0,1-4.45,5.86S324.32,177.36,318.75,175.26Z" style="fill:#e0e0e0"></path></g><g id="freepik--picture--inject-25"><g id="freepik--frame--inject-25"><polygon points="384.75 234.24 383.26 234.96 355.67 219.03 357.16 218.31 384.75 234.24" style="fill:#fafafa"></polygon><polygon points="357.16 218.31 383.41 233.46 387.23 194.2 360.98 179.06 357.16 218.31" style="fill:#fff"></polygon><path d="M352.86,220.34l32.67,18.86L390,192.89,357.37,174Zm6.78-42.07,27.59,15.93-4,40.76L355.67,219Z" style="fill:#f0f0f0"></path><polygon points="355.67 219.03 357.16 218.31 360.98 179.06 359.64 178.27 355.67 219.03" style="fill:#e0e0e0"></polygon><polygon points="357.37 174.03 358.88 173.33 391.55 192.19 390.04 192.89 357.37 174.03" style="fill:#fafafa"></polygon><polygon points="391.55 192.19 390.04 192.89 385.53 239.2 387.04 238.5 391.55 192.19" style="fill:#e0e0e0"></polygon></g><g id="freepik--land--inject-25"><polygon points="358.32 217.56 382.51 231.53 383.16 224.92 378.66 205.49 374.37 212.12 375.26 217.71 368.1 197.09 358.96 210.95 358.32 217.56" style="fill:#f0f0f0"></polygon><path d="M379,197.31a3.41,3.41,0,0,1,1.6,3c-.11,1.08-1,1.49-2,.92a3.39,3.39,0,0,1-1.6-3C377.15,197.15,378,196.74,379,197.31Z" style="fill:#f0f0f0"></path></g></g></g></g><g id="freepik--Plant--inject-25"><g id="freepik--plant--inject-25"><g id="freepik--pot--inject-25"><g id="freepik--pot--inject-25"><path d="M432.34,358.08c-8.06-8.31-12.8-42.16-4.94-48.76h40c7.86,6.6,3.13,40.43-4.92,48.75l-.22.23-.28.28c-.23.22-.47.44-.73.65l-.19.16c-.2.15-.39.31-.61.46a9.14,9.14,0,0,1-1,.67c-6.63,3.87-17.38,3.87-24,0h0a12.43,12.43,0,0,1-1-.68c-.2-.14-.38-.28-.57-.43l-.23-.19a8.62,8.62,0,0,1-.71-.63l-.32-.32Z" style="fill:#ebebeb"></path><path d="M463.93,306.67c9.13,5.32,9.13,14,0,19.29s-23.92,5.33-33.05,0-9.13-14,0-19.29S454.8,301.34,463.93,306.67Z" style="fill:#f5f5f5"></path><path d="M459.54,309.23c6.7,3.91,6.7,10.26,0,14.17s-17.57,3.91-24.27,0-6.7-10.26,0-14.17S452.84,305.32,459.54,309.23Z" style="fill:#e0e0e0"></path><path d="M435.27,316c6.7-3.91,17.57-3.91,24.27,0a11.26,11.26,0,0,1,4,3.73,11.33,11.33,0,0,1-4,3.72c-6.7,3.91-17.57,3.91-24.27,0a11.33,11.33,0,0,1-4-3.72A11.26,11.26,0,0,1,435.27,316Z" style="fill:#fafafa"></path></g><g id="freepik--Plants--inject-25"><path d="M465.35,246.89l-15.19,12.05,14.69-6.78a40.78,40.78,0,0,1-2.55,13.91,90.34,90.34,0,0,0-11.44,8.1l11.26-4.44s.77,7.42-2.31,18.73c-.81,3-4.14,8.63-6.25,12.86a47.91,47.91,0,0,1-3.27,5.64l-.22.35q-3.87-2.21-8-4.28c-1.81-3.81-4.17-13.21-5-20.91-3.24-29.47,19-46.36,37-52C474,230.1,467.82,237.82,465.35,246.89Z" style="fill:#f0f0f0"></path><path d="M452.65,248.13c-3.1,3.11-4.91,7.22-6.3,11.32a59.7,59.7,0,0,0-2.7,12.75,55.38,55.38,0,0,0,3.21,25.59h0a.43.43,0,0,1-.8.3h0a55.77,55.77,0,0,1-2.84-26,60,60,0,0,1,2.91-12.77C447.61,255.29,449.5,251.19,452.65,248.13Z" style="fill:#fff"></path><path d="M399.61,262.35l0,0a228.07,228.07,0,0,1,15.87,22.3l15.41,2.47-11.37,2,6.1,9.66,15.17,3.14L429,303.86s3.28,11.55,11.76,16.37c4.68,2.66,7,3.06,8.37,1.73,1-.93,1.21-6.48,2-11.42s.89-13-3.78-22.7a30.21,30.21,0,0,0-4.86-7.13C431.29,268.22,410.09,262.19,399.61,262.35Z" style="fill:#f5f5f5"></path><path d="M415.74,267.39a62.82,62.82,0,0,1,21.43,14.8,42.18,42.18,0,0,1,7.34,10.9,40,40,0,0,1,3.35,12.66.07.07,0,0,1,0,.05,0,0,0,0,1,0,0,51.52,51.52,0,0,0-4-12.31,47.22,47.22,0,0,0-7.07-10.8,64,64,0,0,0-21-15.18,0,0,0,0,1,0-.06A0,0,0,0,1,415.74,267.39Z" style="fill:#fff"></path><path d="M491.42,268.71h0a29.93,29.93,0,0,0-3.88.18,61.92,61.92,0,0,0-14.83,3.61c-1.77.66-3.55,1.4-5.3,2.24-.87.42-1.74.86-2.59,1.32a43,43,0,0,0-11.36,8.59,27.3,27.3,0,0,0-3.92,5.5c-.13.25-.28.5-.41.76h0c-.33.68-.63,1.34-.91,2a37.13,37.13,0,0,0-3.35,18.25c.16,4.42,1.67,9.48,2.53,10.31a1.78,1.78,0,0,0,.38.28c1.26.8,3.27.34,7-1.76,7.51-4.2,10.46-14.84,10.46-14.84l-10.44-1.77,13.41-2.68,5.44-8.49-10-1.82,13.62-2.09a197.63,197.63,0,0,1,14.14-19.58l0,0Z" style="fill:#f0f0f0"></path><path d="M487.54,268.89a61.92,61.92,0,0,0-14.83,3.61c-1.77.66-3.55,1.4-5.3,2.24-.87.42-1.74.86-2.59,1.32a43,43,0,0,0-11.36,8.59,27.3,27.3,0,0,0-3.92,5.5c-.13.25-.28.5-.41.76h0c-.33.68-.63,1.34-.91,2a37.13,37.13,0,0,0-3.35,18.25c.16,4.42,1.67,9.48,2.53,10.31a1.78,1.78,0,0,0,.38.28,2.24,2.24,0,0,0,.83.31c-.93-6.86,2.44-24.24,7.55-31.39,5.31-7.44,17.91-18.23,35.24-21.95l0,0A31.19,31.19,0,0,0,487.54,268.89Z" style="fill:#e6e6e6"></path><path d="M448.57,322.07a58.86,58.86,0,0,1,1-15.16,48.84,48.84,0,0,1,5-14.38,42.7,42.7,0,0,1,10.18-11.37,57,57,0,0,1,13.06-7.83,0,0,0,1,1,0,.08,74.2,74.2,0,0,0-12.56,8.41,54.69,54.69,0,0,0-5.52,5.13,34.12,34.12,0,0,0-4.61,5.92A48.64,48.64,0,0,0,450,307a58.68,58.68,0,0,0-1.32,15.07,0,0,0,0,1,0,.05A0,0,0,0,1,448.57,322.07Z" style="fill:#fff"></path></g></g></g></g><g id="freepik--Character--inject-25"><g id="freepik--chartacter-on-a-table--inject-25"><g id="freepik--Chair--inject-25"><path d="M213,390.41l-8.75-94.73-8.13-.42,12.79,95.14h0a1.09,1.09,0,0,0,.54.72,3.19,3.19,0,0,0,2.9.15,1,1,0,0,0,.63-.86Z" style="fill:#263238"></path><path d="M204.28,295.68l-8.13-.42L198.54,311a31.15,31.15,0,0,0,4.81-2.22A4.9,4.9,0,0,0,205.5,307Z" style="fill:#263238"></path><path d="M96.3,283.51H88.16l-13,90.11h0a1,1,0,0,0,.59.89,3.22,3.22,0,0,0,2.9,0,1.07,1.07,0,0,0,.57-.7h0Z" style="fill:#37474f"></path><path d="M88.16,283.51,85,305.39a33.83,33.83,0,0,0,6.42,3.93l4.88-25.81Z" style="fill:#263238"></path><path d="M158.67,418.23l-6.46-96.13-8.13-.42,10.5,96.53h0a1.08,1.08,0,0,0,.54.73,3.22,3.22,0,0,0,2.9.15,1,1,0,0,0,.63-.86Z" style="fill:#37474f"></path><path d="M153,334.26l-.82-12.16-8.13-.42,1.43,13.12C147.32,335.35,150.66,335,153,334.26Z" style="fill:#263238"></path><path d="M140.7,257.69h-8.13l-13,91.87h0a1,1,0,0,0,.59.9,3.22,3.22,0,0,0,2.9,0,1.11,1.11,0,0,0,.58-.7h0Z" style="fill:#263238"></path><g id="freepik--chair--inject-25"><path d="M72.87,193.64a46,46,0,0,0-3.25,14.28c-.92,11,2.78,46.41,5,62.27h0c3.22,26.49,7.17,26.54,12.91,31,9.88,7.63,38.27,22.58,47.65,26.27,17,6.7,30.89-3.62,41.26-8.74a240.28,240.28,0,0,0,27.44-16.25c2.58-1.89,3.93-3.79,3.9-5.8,0-.79,0-4.05,0-4.88,0-2.56-2.26-5.3-7-8.39-8.78-5.69-40.51-24.2-52.81-31a.12.12,0,0,0-.1-.1c-9.46-5.74-15.15-44.78-21.7-65.55-.14-.44-.28-.88-.43-1.29s-.23-.65-.34-1c-.41-1.13-.84-2.16-1.29-3.11" style="fill:#5DB5CE"></path><path d="M207.79,291.75c0-2.56-2.26-5.3-7-8.39-8.78-5.69-40.51-24.2-52.81-31a.12.12,0,0,0-.1-.1c-9.46-5.74-15.15-44.78-21.7-65.55-.07-.2-.53-1.79-1.38-3.82l-.12-.28c-.11-.28-.24-.56-.37-.84s-.12-.29-.19-.43h0a19.84,19.84,0,0,0-4.37-6.31,9.34,9.34,0,0,0-2.14-1.51c-1.06-.6-3.3-1.84-3.86-2.17-6.42-3.84-14.85.77-25.36,6.52-6.53,3.59-12.1,7.84-15.5,15.78h0a46,46,0,0,0-3.25,14.28c-.92,11,2.78,46.41,5,62.27h0c3.22,26.49,7.17,26.54,12.91,31,9.88,7.63,38.27,22.58,47.65,26.27,17,6.7,30.89-3.62,41.26-8.74a240.28,240.28,0,0,0,27.44-16.25c2.58-1.89,3.93-3.79,3.9-5.8C207.77,295.84,207.79,292.58,207.79,291.75Z" style="fill:#5DB5CE"></path><path d="M207.79,291.75c0-2.56-2.26-5.3-7-8.39-8.78-5.69-40.51-24.2-52.81-31a.12.12,0,0,0-.1-.1c-9.46-5.74-15.15-44.78-21.7-65.55-.07-.2-.53-1.79-1.38-3.82l-.12-.28c-.11-.28-.24-.56-.37-.84s-.12-.29-.19-.43h0a19.84,19.84,0,0,0-4.37-6.31,9.34,9.34,0,0,0-2.14-1.51c-1.06-.6-3.3-1.84-3.86-2.17-6.42-3.84-14.85.77-25.36,6.52-6.53,3.59-12.1,7.84-15.5,15.78h0a46,46,0,0,0-3.25,14.28c-.92,11,2.78,46.41,5,62.27h0c3.22,26.49,7.17,26.54,12.91,31,9.88,7.63,38.27,22.58,47.65,26.27,17,6.7,30.89-3.62,41.26-8.74a240.28,240.28,0,0,0,27.44-16.25c2.58-1.89,3.93-3.79,3.9-5.8C207.77,295.84,207.79,292.58,207.79,291.75Z" style="fill:#fff;opacity:0.25"></path><path d="M176.43,313.76a242.46,242.46,0,0,0,27.45-16.26c5.89-4.28,5.35-8.66-3.1-14.14-11.73-7.61-59.55-34.74-59.55-34.74S80.77,284.3,83.37,290.89s40,27,51.81,31.61C152.18,329.18,166.08,318.87,176.43,313.76Z" style="fill:#5DB5CE"></path><path d="M176.43,313.76a242.46,242.46,0,0,0,27.45-16.26c5.89-4.28,5.35-8.66-3.1-14.14-11.73-7.61-59.55-34.74-59.55-34.74S80.77,284.3,83.37,290.89s40,27,51.81,31.61C152.18,329.18,166.08,318.87,176.43,313.76Z" style="fill:#fff;opacity:0.6000000000000001"></path><path d="M117.59,173.51c-6.36-3.34-14.64,1.2-24.87,6.81-6.55,3.59-12.13,7.85-15.53,15.81l-4.32-2.49c3.4-7.94,9-12.19,15.5-15.78,10.51-5.75,18.94-10.36,25.36-6.52C114.29,171.67,116.53,172.91,117.59,173.51Z" style="fill:#5DB5CE"></path><path d="M117.59,173.51c-6.36-3.34-14.64,1.2-24.87,6.81-6.55,3.59-12.13,7.85-15.53,15.81l-4.32-2.49c3.4-7.94,9-12.19,15.5-15.78,10.51-5.75,18.94-10.36,25.36-6.52C114.29,171.67,116.53,172.91,117.59,173.51Z" style="fill:#fff;opacity:0.5"></path><path d="M126.17,186.7c-.14-.44-2.33-8.06-6.44-11.68a10.33,10.33,0,0,0-7-2.65c-5.56,0-12.23,3.67-20.06,7.95-.65.36-1.29.73-1.93,1.1-.25.14-.49.29-.73.44s-.58.36-.86.54l-.64.41a37.07,37.07,0,0,0-3.93,3,6,6,0,0,0-.59.54,25.9,25.9,0,0,0-2.24,2.32c-.13.14-.26.29-.38.44l-.44.55-.43.57-.42.58a29.39,29.39,0,0,0-1.56,2.5c-.06.11-.13.23-.18.34s-.25.47-.37.7-.34.7-.51,1.05a45.18,45.18,0,0,0-3.54,15c-1.52,18,4.64,77.44,10.83,82.56,0,0-1-5.81,11.49-13.64,8.46-5.32,14.39-9.8,23.42-14.22,22-10.81,28.16-12.83,28.16-12.83C138.41,246.51,132.72,207.47,126.17,186.7Z" style="fill:#5DB5CE"></path><path d="M126.17,186.7c-.14-.44-2.33-8.06-6.44-11.68a10.33,10.33,0,0,0-7-2.65c-5.56,0-12.23,3.67-20.06,7.95-.65.36-1.29.73-1.93,1.1-.25.14-.49.29-.73.44s-.58.36-.86.54l-.64.41a37.07,37.07,0,0,0-3.93,3,6,6,0,0,0-.59.54,25.9,25.9,0,0,0-2.24,2.32c-.13.14-.26.29-.38.44l-.44.55-.43.57-.42.58a29.39,29.39,0,0,0-1.56,2.5c-.06.11-.13.23-.18.34s-.25.47-.37.7-.34.7-.51,1.05a45.18,45.18,0,0,0-3.54,15c-1.52,18,4.64,77.44,10.83,82.56,0,0-1-5.81,11.49-13.64,8.46-5.32,14.39-9.8,23.42-14.22,22-10.81,28.16-12.83,28.16-12.83C138.41,246.51,132.72,207.47,126.17,186.7Z" style="fill:#fff;opacity:0.4"></path></g></g><g id="freepik--Bottom--inject-25"><path d="M192.61,359.53,193.76,397a13.26,13.26,0,0,1-9.58,9.56c-8.12,2.19-9.9-8-9.9-8l-8.6-35.6Z" style="fill:#b16668"></path><path d="M173.12,414.4a10,10,0,0,0,.82,3.48c.71,1.36,4.61,2.89,6.74,3.75a11.89,11.89,0,0,1,7,5.85,23.62,23.62,0,0,0,11.73,10.11,33.92,33.92,0,0,0,20.1.57c8.23-2.13,8.54-7.1,8.54-7.1s.09-4.66-2-5.23S173.12,414.4,173.12,414.4Z" style="fill:#263238"></path><path d="M173.75,396.32c-.64.15-.67.87-.63,3s-.6,4.86-.72,6.91c-.15,2.73-.21,6.16.7,8.8,2.62,3.85,7.46,2.87,12.37,6.77,4.5,3.58,9.27,12.45,20.36,13.8s19.13-2.74,20.91-6-.28-6.05-7.56-9.31c-7.74-3.45-18.42-14.68-18.42-14.68-1.3-1.54-2.62-3.06-3.84-4.71a9.18,9.18,0,0,1-1.08-2.76,18.18,18.18,0,0,1-.64-3.27c-.06-.57-.17-1.25-.69-1.49a1.44,1.44,0,0,0-1,0,29.43,29.43,0,0,0-3.82,1.56,32.48,32.48,0,0,1-6.17,2,2.49,2.49,0,0,0-1.56.76,2.32,2.32,0,0,0-.31,1.19c-.07,1.14-.1,2.28-.09,3.41a2.59,2.59,0,0,1-.09.88.82.82,0,0,1-.62.57c-.52.07-.87-.52-1-1a9.75,9.75,0,0,0-1.46-2.43,4.67,4.67,0,0,0-2.54-1.93,11.24,11.24,0,0,1-1.77-.89Z" style="fill:#37474f"></path><path d="M198.56,433.51s-.72-7.64,7.2-12.47,13.14-2.49,15.79-.86c3.17,1.93,7.8,6.12,5.44,9.59-2.55,3.75-6.94,5.77-15.34,6.5S198.56,433.51,198.56,433.51Z" style="fill:#fafafa"></path><path d="M185.36,408.81a1,1,0,0,0,.72-.45c.84-1.37,6.47-6.69,12.38-5.52.24-.69-.29-1.34-1.54-2-6.12-.09-11.47,4.92-12.48,6.57a.88.88,0,0,0,.34,1.24A1,1,0,0,0,185.36,408.81Z" style="fill:#fafafa"></path><path d="M202.1,407a2.85,2.85,0,0,0-1.79-1.89c-5.79.31-10.75,5-11.72,6.57a.88.88,0,0,0,.34,1.24.91.91,0,0,0,.58.12,1,1,0,0,0,.72-.45C191,411.21,196.39,406.17,202.1,407Z" style="fill:#fafafa"></path><path d="M211.89,415.65a5.26,5.26,0,0,0-2.77-2.24c-6,0-11.23,4.95-12.23,6.58a.88.88,0,0,0,.34,1.24.91.91,0,0,0,.58.12,1,1,0,0,0,.72-.45C199.41,419.45,205.64,413.61,211.89,415.65Z" style="fill:#fafafa"></path><path d="M193.66,417.17a1,1,0,0,0,.72-.45c.83-1.35,6.35-6.56,12.18-5.55a3.28,3.28,0,0,0-2.1-1.93c-5.79.31-10.75,5-11.72,6.57a.88.88,0,0,0,.34,1.24A.91.91,0,0,0,193.66,417.17Z" style="fill:#fafafa"></path><path d="M228.63,337l3.3,37.23a15.26,15.26,0,0,1-10.08,9.91c-8.07,2.4-10.11-7.76-10.11-7.76L202.24,341Z" style="fill:#b16668"></path><path d="M211,392.27a10.16,10.16,0,0,0,.91,3.46c.75,1.34,4.69,2.77,6.84,3.58a11.81,11.81,0,0,1,7.12,5.66,23.62,23.62,0,0,0,12,9.81,33.82,33.82,0,0,0,20.11.05c8.17-2.34,8.35-7.31,8.35-7.31s0-4.66-2.17-5.18S211,392.27,211,392.27Z" style="fill:#263238"></path><path d="M211.16,374.18c-.63.16-.65.89-.56,3s-.47,4.87-.53,6.92c-.08,2.74-.06,6.17.92,8.79,2.72,3.78,7.53,2.67,12.54,6.45,4.59,3.46,9.59,12.2,20.71,13.26s19.05-3.23,20.75-6.54-.43-6-7.8-9.11c-7.82-3.26-18.79-14.21-18.79-14.21-1.34-1.5-2.69-3-4-4.6a9.21,9.21,0,0,1-1.15-2.74,18,18,0,0,1-.73-3.25c-.07-.57-.19-1.25-.72-1.47a1.53,1.53,0,0,0-1,0,31.5,31.5,0,0,0-3.77,1.66,32.31,32.31,0,0,1-6.12,2.18,2.42,2.42,0,0,0-1.53.79,2.15,2.15,0,0,0-.28,1.2c-.05,1.14-.05,2.28,0,3.41a2.58,2.58,0,0,1-.06.88.86.86,0,0,1-.61.59c-.52.08-.88-.5-1-1a9.71,9.71,0,0,0-1.52-2.38,4.64,4.64,0,0,0-2.58-1.87,10.74,10.74,0,0,1-1.8-.85Z" style="fill:#37474f"></path><path d="M236.92,410.72s-.92-7.62,6.88-12.65,13.06-2.82,15.76-1.27c3.21,1.86,7.95,5.93,5.68,9.46-2.46,3.81-6.79,5.94-15.16,6.89S236.92,410.72,236.92,410.72Z" style="fill:#fafafa"></path><path d="M223.09,386.37a1,1,0,0,0,.7-.47c.81-1.39,6.3-6.86,12.24-5.83.23-.7-.33-1.34-1.59-1.93-6.12.07-11.34,5.21-12.31,6.9a.88.88,0,0,0,.37,1.23A1,1,0,0,0,223.09,386.37Z" style="fill:#fafafa"></path><path d="M239.78,384.08a2.85,2.85,0,0,0-1.84-1.84c-5.79.46-10.62,5.26-11.55,6.87a.88.88,0,0,0,.37,1.23.91.91,0,0,0,.58.1,1,1,0,0,0,.71-.46C228.83,388.62,234,383.44,239.78,384.08Z" style="fill:#fafafa"></path><path d="M249.79,392.53a5.25,5.25,0,0,0-2.83-2.17c-6,.21-11.1,5.23-12.06,6.89a.88.88,0,0,0,.37,1.24,1.08,1.08,0,0,0,.58.1,1,1,0,0,0,.71-.47C237.41,396.65,243.48,390.65,249.79,392.53Z" style="fill:#fafafa"></path><path d="M231.6,394.51a.92.92,0,0,0,.7-.46c.8-1.38,6.18-6.73,12-5.86a3.27,3.27,0,0,0-2.15-1.88c-5.78.46-10.62,5.26-11.55,6.87a.89.89,0,0,0,.37,1.23A.94.94,0,0,0,231.6,394.51Z" style="fill:#fafafa"></path><path d="M223,289.26c-3.23-9.5-34.16-25.29-44.63-31.56s-16.3-10.16-28.21-18.54l-25.31-11.64c-2.09,10.65-2.8,10.21.51,20.77L90.74,261c1.47,13.87,5,20.89,8.77,25.22,5.66,6.53,10.79,10.55,26.21,19.52,12.75,7.43,25.77,16,29.26,18.28,4,2.58,4.28,5,4.28,10.39,0,15.08,5.88,30.55,10.18,47.21a39.31,39.31,0,0,0,23.94-4.94s-1.46-59.81-4.7-69.31a18.52,18.52,0,0,0-3.25-5c1.83.78,3.23,1.4,4,1.77,4.74,2.38,5.57,4.09,6.13,12.15.82,11.73,1.46,12.65,5.65,26.54,2.53,8.41,6.37,18.9,6.37,18.9,4.87,2.51,18.08-.89,22.78-5.44C230.34,356.33,226.24,298.76,223,289.26Z" style="fill:#37474f"></path><path d="M176.2,381.83c-3.34-13.5-8-33.13-8.77-39.62-.39-3.52-.64-6.52-.86-9.18-.42-5.06-.72-8.71-1.7-11.32-1.26-3.33-17.75-15-34.52-26.58l-3.75-2.6-2.71-1.86c-10-6.82-16.55-11.32-18.65-28.21l-1,.13c2.16,17.34,9.25,22.19,19.07,28.9l2.71,1.86,3.75,2.6c11.5,8,32.9,22.79,34.15,26.12.94,2.47,1.23,6.07,1.64,11,.22,2.67.47,5.68.87,9.21.73,6.5,5.4,26,8.75,39.56Z" style="fill:#263238"></path><path d="M118.6,287.93l-.59-.8c4.1-3,8.16-10.84,2.58-19.87l.85-.52C127.38,276.34,123,284.67,118.6,287.93Z" style="fill:#263238"></path><path d="M198.22,304.74c-1.07-2.87-13.94-9.61-13.94-9.61l-26.86-23.56c5.08-5.69,3.88-15,3.88-15-1.47,11.61-9.4,15.33-9.4,15.33a347.33,347.33,0,0,1,33.53,30.54h0c1.83.78,3.23,1.4,4,1.77,4.74,2.38,5.57,4.09,6.13,12.15.74,10.71,1.35,12.41,4.63,23.2h0c-.63-3-2.53-16.41-2.52-18.3C197.71,311.05,199.3,307.61,198.22,304.74Z" style="fill:#263238"></path><path d="M168.34,377.52c4.85.9,20.5-.46,24.91-5.5l.51,10.56s-2.16,3.41-10.58,5-12.83-.58-12.83-.58Z" style="fill:#263238"></path><path d="M205.78,356.92c4.84.9,19.77-.71,24.18-5.75l1.06,9.61s-2.15,3.41-10.57,5-12.48-.55-12.48-.55Z" style="fill:#263238"></path></g><g id="freepik--Top--inject-25"><path d="M143.09,164.78c16.85,3.79,17.71,5.28,29.64,17.27,8.05,8.1,18.61,18.75,18.61,18.75s13.53-24.91,14-28.83c.62-4.71-1.23-7.7-1.48-12.78s.35-8.45-.65-10.67,3.24-2.29,4.66.49,1.23,6.48,2.47,5.94,2.88-8.34,2.49-14.13,2.94-6.94,3.92-5a16.33,16.33,0,0,1,1.29,3.23,12.1,12.1,0,0,1,1.57-.12,2.4,2.4,0,0,1,2.09.75c.53.58.89,1.31,1.47,1.84a12.9,12.9,0,0,0,2,1.23c4.94,3.06,3.62,11.93,2.95,16.62-1.41,9.8-6.41,14.28-8.09,17.76-.62,1.28-1.55,5.68-4.07,14.78-2.88,10.38-5.38,21.08-11.31,31.19-5,8.46-11.72,7.31-17.9,3.23C178,220.49,153.54,202,153.54,202,144.52,188.18,143.09,164.78,143.09,164.78Z" style="fill:#b16668"></path><path d="M146.63,165.16c5.72,1.44,10.66,2,16.78,7.21s27.9,27.39,27.9,27.39l3.17-4.84s.72,5.31,6.9,9.12,10.73,1.75,10.73,1.75a83.7,83.7,0,0,1-4.32,12.8c-2.85,6.52-6.19,10.89-10.95,11.22s-6.61-.16-17.72-7.88-26.72-20-26.72-20Z" style="fill:#455a64"></path><path d="M212.81,157.74s5.7,4.41,2.86,13.45c0,0,3.77-4.48,2-8.77S212.81,157.74,212.81,157.74Z" style="fill:#9a4a4d"></path><path d="M191.31,199.76s-3.67,5.08-3.86,15.08a21.07,21.07,0,0,1,2-17Z" style="fill:#37474f"></path><path id="freepik--Chest--inject-25" d="M158,189.23c-2.16-19.8-7.39-23.42-14-24.81s-12.71-2.81-19.31-2.4c-8.07.49-23.85,6.65-31,10.66-6,3.41-7,9.12-8.1,19.06-.77,7.09,0,9.64.1,31.15.11,15.74,2.74,34.22,5.43,44.39,13.75,9.71,57.43,0,73.27-18.25-3.77-4.4-5.35-10-5.6-20.22C158.36,211.47,159,198.72,158,189.23Z" style="fill:#f0f0f0"></path><g id="freepik--Head--inject-25"><path d="M115.83,113.17s-4.17.19-6.45,5.13c-1.67,3.64-.84,10.6.27,19s2,12,2.91,14.38a6.32,6.32,0,0,0,3.29,3.29l.83-9.7.4-6.78s5-5.43,6-10.21c1.3-6.17.27-8.86.27-8.86Z" style="fill:#263238"></path><path d="M115.83,113.17c1.55-5.32,9.78-11.21,20.59-9.3s16,5.53,19,12.3-.05,11.23-.05,11.23l-32.71-3.78Z" style="fill:#263238"></path><path d="M106.69,146.29a6.46,6.46,0,0,0,8.23.59l-2.48,20.76c3.3,7.38,16.38,13,23,10.75s3.09-6.63.72-9.77l1.31-5.51a52.05,52.05,0,0,0,5.87.14c4.51-.21,7.69-3.42,9.55-8.07,3-7.49,4-21,1.56-35.17-5.38-5.11-19.93-6.09-31.1-.62-.46,8.88-3.35,12.54-3.68,15.75a8.48,8.48,0,0,1-2.19,2.27c-1.78,1.23-2.7-2.56-3.91-4.14s-6.45-4-9.17.49S103.39,143.42,106.69,146.29Z" style="fill:#b16668"></path><path d="M133.19,127.48l-4.8,2.28a2.79,2.79,0,0,1,1.31-3.63A2.58,2.58,0,0,1,133.19,127.48Z" style="fill:#263238"></path><path d="M152.54,129.63,148,127.11a2.52,2.52,0,0,1,3.47-1A2.65,2.65,0,0,1,152.54,129.63Z" style="fill:#263238"></path><polygon points="140.92 143.88 148.35 141.51 139.93 128.66 140.92 143.88" style="fill:#9a4a4d"></polygon><path d="M147.45,133.16a2.1,2.1,0,0,0,2.55,2.55,2,2,0,0,0,1.51-1.51,2.1,2.1,0,0,0-4.06-1Z" style="fill:#263238"></path><path d="M130.67,133.76a2.1,2.1,0,1,0,2.1-2.1A2.09,2.09,0,0,0,130.67,133.76Z" style="fill:#263238"></path><path d="M119.63,134c-.11,9.55,3.13,10.4,6.48,11.16,4.44,1,6.79-.74,14.81-.26,4.86.29,6.3,1.28,9,2.58,2,1,4.76.51,5.2-1.44a46.85,46.85,0,0,1-.84,6.64c-.82,4.46-1.76,7.39-4.37,9.33-3.6,2.7-10.85,2.71-19.69.2s-12-5.69-12.88-8.92c-2.89-10.48-1.22-15.26-2.28-17.27S119.63,134,119.63,134Z" style="fill:#263238"></path><path d="M139.65,147.12c-4.57-.36-6.11.38-6.52,3.5-.58,4.47-.45,6,1.25,6.33,2,.39,3.48.6,3.63-.67s.24-2.39-.12-2.89c-.66-.9-.41-1,1.6-.84s2,.51,1.33,1.1c-.47.42-.52,2-.57,2.85s.14,1.36,3.05,1.25c2.53-.09,2.22-2.14,2.4-6C145.83,149.16,144.83,147.54,139.65,147.12Z" style="fill:#b16668"></path><path d="M136.61,148.1l6,1.2a3,3,0,0,1-3.56,2.52A3.22,3.22,0,0,1,136.61,148.1Z" style="fill:#9a4a4d"></path><path d="M137.35,149.07a3.13,3.13,0,0,0-.75,0,3.18,3.18,0,0,0,2.49,2.72,2.76,2.76,0,0,0,1,0A2.82,2.82,0,0,0,137.35,149.07Z" style="fill:#f28f8f"></path></g></g><g id="freepik--Table--inject-25"><path d="M179.38,313.84a6.82,6.82,0,0,0-6.16,0,2.16,2.16,0,0,0-1.28,1.78L160.79,434.53h0a1.55,1.55,0,0,0,.9,1.23,4.85,4.85,0,0,0,4.36,0,1.55,1.55,0,0,0,.9-1.23h0l13.7-118.91A2.16,2.16,0,0,0,179.38,313.84Zm142.29,1.78a2.16,2.16,0,0,0-1.27-1.78,6.84,6.84,0,0,0-6.17,0,2.16,2.16,0,0,0-1.27,1.78l13.7,118.91h0a1.54,1.54,0,0,0,.89,1.23,4.85,4.85,0,0,0,4.36,0,1.53,1.53,0,0,0,.9-1.23h0ZM250.13,332a7.46,7.46,0,0,0-6.76,0,2.34,2.34,0,0,0-1.4,1.95l1.4,128.76h0a1.71,1.71,0,0,0,1,1.35,5.3,5.3,0,0,0,4.78,0,1.71,1.71,0,0,0,1-1.35h0l1.4-128.76A2.36,2.36,0,0,0,250.13,332Z" style="fill:#5DB5CE"></path><g style="opacity:0.30000000000000004"><path d="M179.38,313.84a6.82,6.82,0,0,0-6.16,0,2.16,2.16,0,0,0-1.28,1.78L160.79,434.53h0a1.55,1.55,0,0,0,.9,1.23,4.85,4.85,0,0,0,4.36,0,1.55,1.55,0,0,0,.9-1.23h0l13.7-118.91A2.16,2.16,0,0,0,179.38,313.84Zm142.29,1.78a2.16,2.16,0,0,0-1.27-1.78,6.84,6.84,0,0,0-6.17,0,2.16,2.16,0,0,0-1.27,1.78l13.7,118.91h0a1.54,1.54,0,0,0,.89,1.23,4.85,4.85,0,0,0,4.36,0,1.53,1.53,0,0,0,.9-1.23h0ZM250.13,332a7.46,7.46,0,0,0-6.76,0,2.34,2.34,0,0,0-1.4,1.95l1.4,128.76h0a1.71,1.71,0,0,0,1,1.35,5.3,5.3,0,0,0,4.78,0,1.71,1.71,0,0,0,1-1.35h0l1.4-128.76A2.36,2.36,0,0,0,250.13,332Z"></path></g><g id="freepik--table--inject-25"><g id="freepik--table--inject-25"><g style="opacity:0.15"><path d="M251.16,368.49l.37-34.55a2.36,2.36,0,0,0-1.4-1.95,7.46,7.46,0,0,0-6.76,0,2.34,2.34,0,0,0-1.4,1.95l.37,34.55C245.27,368.56,248.23,368.56,251.16,368.49Z"></path><path d="M321.67,315.62a2.16,2.16,0,0,0-1.27-1.78,6.84,6.84,0,0,0-6.17,0,2.16,2.16,0,0,0-1.27,1.78l4.22,36.64c.65-.35,1.3-.69,1.93-1.06,1.94-1.11,3.82-2.34,5.57-3.52Z"></path><path d="M179.38,313.84a6.82,6.82,0,0,0-6.16,0,2.16,2.16,0,0,0-1.28,1.78l-3,32.09c1.77,1.19,3.67,2.43,5.63,3.56.61.36,1.24.69,1.86,1l4.23-36.68A2.16,2.16,0,0,0,179.38,313.84Z"></path></g><path d="M174.3,251.35c40.06-23.13,105-23.13,145.08,0,20,11.57,30,26.72,30,41.88v2.95c0,15.15-10,30.31-30,41.88-40.06,23.13-105,23.13-145.08,0-20-11.57-30-26.73-30-41.88v-2.95C144.27,278.07,154.27,262.92,174.3,251.35Z" style="fill:#5DB5CE"></path><g style="opacity:0.2"><path d="M174.3,251.35c40.06-23.13,105-23.13,145.08,0,20,11.57,30,26.72,30,41.88v2.95c0,15.15-10,30.31-30,41.88-40.06,23.13-105,23.13-145.08,0-20-11.57-30-26.73-30-41.88v-2.95C144.27,278.07,154.27,262.92,174.3,251.35Z"></path></g><path d="M174.21,243.67c40.06-23.13,105-23.13,145.08,0,20,11.56,30,26.72,30,41.88v5.05c0,15.15-10,30.31-30,41.88-40.06,23.12-105,23.12-145.08,0-20-11.57-30-28.83-30-44v-2.94C144.18,270.39,154.18,255.23,174.21,243.67Z" style="fill:#5DB5CE"></path><g style="opacity:0.4"><path d="M174.21,243.67c40.06-23.13,105-23.13,145.08,0,20,11.56,30,26.72,30,41.88v5.05c0,15.15-10,30.31-30,41.88-40.06,23.12-105,23.12-145.08,0-20-11.57-30-28.83-30-44v-2.94C144.18,270.39,154.18,255.23,174.21,243.67Z" style="fill:#fff"></path></g><g style="opacity:0.1"><path d="M174.21,243.67c40.06-23.13,105-23.13,145.08,0,20,11.56,30,26.72,30,41.88v5.05c0,15.15-10,30.31-30,41.88-40.06,23.12-105,23.12-145.08,0-20-11.57-30-28.83-30-44v-2.94C144.18,270.39,154.18,255.23,174.21,243.67Z"></path></g><path d="M319.29,327.42c40.06-23.13,40.06-60.62,0-83.75s-105-23.13-145.08,0-40.06,60.63,0,83.75S279.23,350.55,319.29,327.42Z" style="fill:#5DB5CE"></path><g style="opacity:0.85"><path d="M319.38,327.42c40.06-23.13,40.06-60.62,0-83.75s-105-23.13-145.08,0-40.06,60.63,0,83.75S279.32,350.55,319.38,327.42Z" style="fill:#fff"></path></g></g></g></g><g id="freepik--Laptop--inject-25"><g id="freepik--laptop--inject-25"><path d="M268.15,260.93l-40.74-23.52a2.33,2.33,0,0,0-2.34,0l-70.69,40.82a.52.52,0,0,0,0,.9l41.13,23.75Z" style="opacity:0.2"></path><path d="M265.11,256v.91a3.74,3.74,0,0,1-1.88,3.26l-65.84,38a3.84,3.84,0,0,1-3.77,0l-35.89-20.65a3.77,3.77,0,0,1-1.87-3.26V273h0v0a.48.48,0,0,0,.24.41l39.42,22.76Z" style="fill:#37474f"></path><path d="M265.12,256l-39-22.54a2.26,2.26,0,0,0-2.25,0l-67.72,39.11a.49.49,0,0,0,0,.86l39.4,22.75Z" style="fill:#455a64"></path><polygon points="195.15 292.85 174.1 280.7 235.66 245.16 256.83 257.24 195.15 292.85" style="fill:#37474f"></polygon><polygon points="256.83 257.24 256.03 257.7 235.66 246.08 174.9 281.17 174.1 280.71 235.66 245.16 256.83 257.24" style="fill:#263238"></polygon><polygon points="184.8 259.07 185.19 259.29 195.51 265.25 213.87 254.65 214.25 254.43 203.54 248.25 184.8 259.07" style="fill:#263238"></polygon><polygon points="185.19 259.29 195.51 265.25 213.87 254.65 203.54 248.69 185.19 259.29" style="fill:#37474f"></polygon><path d="M195.51,296.16v2.51a3.81,3.81,0,0,0,1.88-.5l65.84-38a3.75,3.75,0,0,0,1.89-3.26V256Z" style="fill:#263238"></path></g><g id="freepik--character--inject-25"><g id="freepik--Arm--inject-25"><path d="M145.54,259.45a45.77,45.77,0,0,1,4.57,1c1.82.6,1.37,1,5.06,2.2,4.38,1.42,9.7.48,13.52.33s10.35.62,13.87,2.11,7.86-3.9,9.63-3.22,4.87-.71,1.66-4S186,250,182,248.67a22.26,22.26,0,0,0-2.77-.91,31.94,31.94,0,0,0,4.09-.75,7.21,7.21,0,0,0,3.47-2.23c.36-.44.61-1.15.18-1.51a1,1,0,0,0-.56-.22c-3-.13-5.31-.63-8-.86-1.17-.11-2.87-.66-4-.36s-2.11.44-3.84.8a51.24,51.24,0,0,1-14.31,1c-1.53-.15-5.13-.62-5.13-.62-.91-.08-2,2.25-3.64,5.86A20.47,20.47,0,0,0,145.54,259.45Z" style="fill:#b16668"></path><path d="M177.65,245.63a13.31,13.31,0,0,0-5.42.8,29.41,29.41,0,0,1,7,1.33,31.94,31.94,0,0,0,4.09-.75,7.54,7.54,0,0,0,3.15-1.87C184.35,246.56,180.22,245.93,177.65,245.63Z" style="fill:#9a4a4d"></path></g><path d="M150.11,260.43c-4.85-1.76-15.8-1.25-30.57-2.74a142.36,142.36,0,0,1-16.36-2.22c-5.54-1.29-8.6-1.24-11.32-9-3.23-9.14-8.9-36.39-10.23-45.69-1.51-10.59-.18-16.63,3-21.36,3.37-5,12.23-8,12.23-8s7.28,5.06,10.2,16.74,3,17.27,3,17.27l5,27.63s13.64,4.14,21.55,6.18c10.06,2.6,14.45,3.57,18.1,4.15S150.11,260.43,150.11,260.43Z" style="fill:#b16668"></path><path d="M97.54,170.71c-4.4,1.51-14.18,5.68-16.12,14.81s1.17,24.53,2.74,31.72,6.12,26.67,7.37,30.48,3.38,6.69,9.18,7.75a115.42,115.42,0,0,0,11.58,1.44s-2.84-5.48,1-12.29a20.93,20.93,0,0,1,10-9l-7.86-2.69s-4-22.81-5.35-31.36S106.17,177.25,97.54,170.71Z" style="fill:#455a64"></path><path d="M115.42,232.91c-3.93-1-14.47,1.84-15.8,7.78.24-4.73,6.13-11.37,15.27-10.81Z" style="fill:#37474f"></path></g><path d="M196.57,296.72a4.44,4.44,0,0,0,3.84-.3L266,258.57a4.42,4.42,0,0,0,2.16-3.11l7.18-42.8a4.49,4.49,0,0,0,.06-.73,4.45,4.45,0,0,0-1.32-3.17L205.93,248.1a3.27,3.27,0,0,0-1.6,2.3Z" style="fill:#37474f"></path><path d="M195.51,296.16l.45.26c.2.11.4.21.61.3l7.76-46.32a3.27,3.27,0,0,1,1.6-2.3l68.12-39.34a4.54,4.54,0,0,0-.91-.69l-68.26,39.41a3.3,3.3,0,0,0-1.6,2.3Z" style="fill:#455a64"></path><path d="M205,249l-1.05-.61a3.25,3.25,0,0,0-.63,1.42l-7.77,46.38.45.26c.2.11.4.21.61.3l7.76-46.32A3.36,3.36,0,0,1,205,249Z" style="fill:#263238"></path><path d="M233.49,257.21c.48-2.86,3.44-6.67,6.61-8.5s5.35-1,4.87,1.88-3.44,6.67-6.61,8.5S233,260.08,233.49,257.21Z" style="fill:#5DB5CE"></path></g></g></g></svg>
